# xmcd CD database file
#
# Track frame offsets:
#	150
#	9944
#	24142
#	40940
#	52533
#	64129
#	77344
#	90006
#	98949
#	114679
#	125150
#	139740
#	152545
#	163474
#	175336
#	184842
#	197681
#	210236
#	223173
#	233112
#	245349
#
# Disc length: 3556 seconds
#
# Revision: 0
# Processed by: cddbd v1.5.2PL0 Copyright (c) Steve Scherf et al.
# Submitted via: Feurio! 1.68 - http://www.feurio.com
#
DISCID=0b0de215
DTITLE=Jonny Hill - My American Dream
DYEAR=1900
DGENRE=
TTITLE0=Help Me Make It Through The Night
TTITLE1=I Recall A Gipsy Woman
TTITLE2=My American Dream
TTITLE3=You've Got A Hold On Me
TTITLE4=Tom Dooley
TTITLE5=Wooden Heart
TTITLE6=Some Broken Hearts Never Mend
TTITLE7=Ring Of Fire
TTITLE8=Lucille
TTITLE9=King Of The Road
TTITLE10=Detroit City
TTITLE11=Green Green Grass Of Home
TTITLE12=Adios Amigo (English Version)
TTITLE13=Red River Valley
TTITLE14=Tennessee Waltz
TTITLE15=Yonder Comes A Sucker
TTITLE16=Take These Chains From My Heart
TTITLE17=Oh My Darling Clementine
TTITLE18=Oh Susanna
TTITLE19=The Yellow Rose Of Texas Special Bonus-Track
TTITLE20=Teddybear
EXTD=
EXTT0=
EXTT1=
EXTT2=
EXTT3=
EXTT4=
EXTT5=
EXTT6=
EXTT7=
EXTT8=
EXTT9=
EXTT10=
EXTT11=
EXTT12=
EXTT13=
EXTT14=
EXTT15=
EXTT16=
EXTT17=
EXTT18=
EXTT19=
EXTT20=
PLAYORDER=
